<svg id="Layer_1" data-name="Layer 1" 
    xmlns="http://www.w3.org/2000/svg" viewBox="0 0 360 360">
    <defs>
        <style>.cls-1{fill:#ff8000;}.cls-2{fill:#434244;}</style>
    </defs>
    <title>iconset</title>
    <path class="cls-1" d="M137.16,263.74a40.9,40.9,0,0,1-17.28-23.15L56.57,287.83A22.82,22.82,0,0,1,73.87,310q0,.51,0,1Z"/>
    <path class="cls-1" d="M194.09,208.25,278.68,100.7A41,41,0,0,1,256,82.83L171.38,190.38A40.91,40.91,0,0,1,194.09,208.25Z"/>
    <path class="cls-1" d="M68.4,112.87l-6.32,4.48,63.18,89.17a40.88,40.88,0,0,1,23.57-16.7L85.65,100.65l-11.51,8.16A22.78,22.78,0,0,1,68.4,112.87Z"/>
    <path class="cls-1" d="M261.2,316.27a22.81,22.81,0,0,1,16.57-21.94l-79-55A40.86,40.86,0,0,1,182.21,263l79.06,55C261.23,317.46,261.2,316.87,261.2,316.27Z"/>
    <path class="cls-2" d="M159.13,284.61a55.28,55.28,0,1,1,55.27-55.28A55.34,55.34,0,0,1,159.13,284.61Zm0-81.66a26.39,26.39,0,1,0,26.38,26.38A26.42,26.42,0,0,0,159.13,203Z"/>
    <path class="cls-2" d="M290.94,117a55.28,55.28,0,1,1,55.27-55.28A55.34,55.34,0,0,1,290.94,117Zm0-81.66a26.38,26.38,0,1,0,26.38,26.38A26.41,26.41,0,0,0,290.94,35.36Z"/>
    <path class="cls-2" d="M58.25,129.7A37.27,37.27,0,1,1,95.52,92.44,37.31,37.31,0,0,1,58.25,129.7Zm0-45.63a8.37,8.37,0,1,0,8.37,8.37A8.37,8.37,0,0,0,58.25,84.07Z"/>
    <path class="cls-2" d="M51.05,347.23A37.27,37.27,0,1,1,88.31,310,37.3,37.3,0,0,1,51.05,347.23Zm0-45.63A8.37,8.37,0,1,0,59.42,310,8.38,8.38,0,0,0,51.05,301.6Z"/>
    <path class="cls-2" d="M284,353.53a37.26,37.26,0,1,1,37.27-37.26A37.3,37.3,0,0,1,284,353.53Zm0-45.63a8.37,8.37,0,1,0,8.37,8.37A8.39,8.39,0,0,0,284,307.9Z"/>
</svg>