<svg id="Layer_1" data-name="Layer 1" xmlns="http://www.w3.org/2000/svg" viewBox="0 0 360 360"><defs><style>.cls-1{fill:#ff8000;}.cls-2{fill:#434244;}</style></defs><title>iconset</title><path class="cls-1" d="M56.85,104.77A152.19,152.19,0,0,1,283.51,40.64a35.5,35.5,0,0,0-18.69,22.2A123.32,123.32,0,0,0,84.63,113.46a35.27,35.27,0,0,0-23.53-8.95A37.3,37.3,0,0,0,56.85,104.77ZM202.62,296.85a35.31,35.31,0,0,1,.94-8.08q-3.51.21-7.07.21A123.57,123.57,0,0,1,73.32,173.25a35.57,35.57,0,0,1-29-2.07c3,81.39,70.1,146.69,152.2,146.69,4.26,0,8.49-.18,12.66-.53A35.26,35.26,0,0,1,202.62,296.85ZM329.23,91a35.52,35.52,0,0,1-23.9,16.49,123.3,123.3,0,0,1-43.72,162.91,35.34,35.34,0,0,1,11.91,26.5v.06A152.16,152.16,0,0,0,329.23,91Z"/><path class="cls-2" d="M61.1,189.86A49.9,49.9,0,1,1,111,140,50,50,0,0,1,61.1,189.86Zm0-70.9a21,21,0,1,0,21,21A21,21,0,0,0,61.1,119Z"/><path class="cls-2" d="M298.9,122.48a49.9,49.9,0,1,1,49.9-49.9A50,50,0,0,1,298.9,122.48Zm0-70.9a21,21,0,1,0,21,21A21,21,0,0,0,298.9,51.58Z"/><path class="cls-2" d="M238.07,346.74A49.9,49.9,0,1,1,288,296.85,50,50,0,0,1,238.07,346.74Zm0-70.9a21,21,0,1,0,21,21A21,21,0,0,0,238.07,275.84Z"/></svg>